<?xml version="1.0" encoding="utf-8"?>
<!-- Generator: Adobe Illustrator 27.5.0, SVG Export Plug-In . SVG Version: 6.00 Build 0)  -->
<svg version="1.1" id="Layer_1" xmlns="http://www.w3.org/2000/svg" xmlns:xlink="http://www.w3.org/1999/xlink" x="0px" y="0px"
	 viewBox="0 0 4000 4000" style="enable-background:new 0 0 4000 4000;" xml:space="preserve">
<g>
	<g>
		<rect style="fill:#FFE98B;" width="4000" height="4000"/>
	</g>
	<g>
		<g style="opacity:0.25;">
			<ellipse style="fill:#000072;" cx="2000.005" cy="3279.063" rx="869.887" ry="83.225"/>
		</g>
		<g>
			<g>
				<path style="fill:#FF4867;" d="M2340.385,1123.775l-528.763-65.183c0,0,14.898-100.996,63.606-203.281
					c33.092-69.624,81.8-139.819,152.282-179.215c173.914-96.985,359.146-7.163,243.537,236.087
					c4.871-3.151,110.594-69.766,178.499-22.205c10.601,7.306,20.342,17.477,28.508,30.943
					C2553.264,1045.127,2340.385,1123.775,2340.385,1123.775z"/>
			</g>
			<g>
				<path style="fill:#D3264B;" d="M2340.385,1123.775l-528.763-65.183c0,0,14.898-100.996,63.606-203.281
					c12.607-6.447,20.486-10.172,20.486-10.172s-24.211,138.96,119.763,136.094c143.831-2.865,268.464-167.898,276.2-244.253
					c0,0-3.868,139.102-27.076,186.378c-23.208,47.275-12.463,92.687,73.491,84.092c85.954-8.739,125.493-46.416,112.887-102.429
					c-1.29-6.017-1.862-11.031-1.432-15.042c10.601,7.306,20.342,17.477,28.508,30.943
					C2553.264,1045.127,2340.385,1123.775,2340.385,1123.775z"/>
			</g>
			<g style="opacity:0.5;">
				<path style="fill:#FFFFFF;" d="M2013.316,809.203c-20.462-10.709-25.451-35.154-10.088-51.07
					c24.741-25.632,70.191-62.784,132.387-72.291c61.412-9.387,83.852,18.365,92.05,40.17c4.974,13.23-0.305,27.777-12.621,36.328
					C2176.613,789.024,2082.223,845.266,2013.316,809.203z"/>
			</g>
			<g style="opacity:0.5;">
				<path style="fill:#FFFFFF;" d="M2336.835,945.007c-7.148-5.72-7.233-15.61-0.047-20.636
					c11.573-8.094,32.077-19.098,56.998-18.074c24.607,1.011,31.23,13.512,32.764,22.619c0.931,5.525-2.228,10.784-7.669,13.176
					C2401.902,949.555,2360.907,964.271,2336.835,945.007z"/>
			</g>
			<g>
				<path style="fill:#000072;" d="M2340.438,1147.304c-0.959,0-1.921-0.059-2.881-0.176l-528.765-65.19
					c-6.292-0.776-12.005-4.058-15.845-9.099c-3.843-5.044-5.488-11.421-4.563-17.693c1.782-12.122,45.791-298.03,227.664-399.575
					c99.509-55.557,206.951-54.856,267.344,1.743c48.901,45.833,59.661,119.539,31.809,207.258
					c30.945-11.479,70.303-20.305,107.273-11.846c32.19,7.363,57.666,26.216,75.722,56.028
					c20.481,33.818,24.9,68.042,13.135,101.724c-29.822,85.373-157.317,133.364-162.729,135.366
					C2345.98,1146.813,2343.216,1147.304,2340.438,1147.304z M1839.41,1038.273l498.039,61.404
					c34.443-13.855,111.777-54.038,129.456-104.785c6.982-20.044,4.043-40.242-8.982-61.748
					c-11.338-18.721-26.333-30.005-45.842-34.497c-55.923-12.883-127.659,32.9-128.376,33.367c-8.848,5.713-20.42,4.868-28.325-2.08
					c-7.908-6.948-10.256-18.294-5.732-27.798c44.343-93.12,44.91-169.831,1.55-210.469
					c-45.381-42.524-130.652-40.515-212.195,5.012C1905.706,771.103,1853.734,969.609,1839.41,1038.273z"/>
			</g>
		</g>
		<g>
			<g>
				<g>
					<polygon style="fill:#FF9433;" points="1724.85,3203.434 1604.238,3203.434 1555.992,2895.642 1738.08,2910.877 					"/>
				</g>
				<g>
					<path style="fill:#D6661A;" d="M1577.099,3030.295c0,0,24.996,72.293,80.66,68.484c55.665-3.809,75.374-78.513,75.374-78.513
						l-7.957,175.956l-126.017-18.727L1577.099,3030.295z"/>
				</g>
				<g>
					<path style="fill:#000072;" d="M1724.849,3224.926h-120.613c-10.583,0-19.592-7.707-21.233-18.164l-48.245-307.793
						c-1.021-6.516,1.006-13.14,5.498-17.969c4.495-4.832,10.959-7.354,17.527-6.775l182.087,15.237
						c11.509,0.962,20.2,10.85,19.678,22.388l-13.23,292.556C1745.799,3215.885,1736.341,3224.926,1724.849,3224.926z
						 M1622.623,3181.942h81.685l11.367-251.372l-134.214-11.23L1622.623,3181.942z"/>
				</g>
			</g>
			<g>
				<g>
					<path style="fill:#FF9433;" d="M1604.003,3279.064h-69.711c-38.554,0-66.163-37.728-53.941-74.293
						c12.787-38.256,38.221-76.968,88.796-76.968s76.009,38.712,88.796,76.968
						C1670.165,3241.336,1642.557,3279.064,1604.003,3279.064z"/>
				</g>
				<g>
					<path style="fill:#D6661A;" d="M1504.742,3158.442c0,0-14.123,69.622,64.405,71.94c78.528,2.318,70.072-64.426,70.072-64.426
						s72.786,111.948-70.072,113.107S1504.742,3158.442,1504.742,3158.442z"/>
				</g>
				<g>
					<path style="fill:#000072;" d="M1604.002,3300.556h-69.712c-25.137,0-48.921-12.19-63.625-32.607
						c-14.797-20.549-18.696-46.06-10.698-69.99c19.756-59.099,58.53-91.646,109.18-91.646c50.654,0,89.429,32.549,109.18,91.648
						c7.998,23.931,4.099,49.441-10.698,69.988C1652.923,3288.366,1629.139,3300.556,1604.002,3300.556z M1569.146,3149.296
						c-11.77,0-47.593,0-68.413,62.29c-3.564,10.659-1.809,22.048,4.812,31.245c6.748,9.368,17.224,14.741,28.745,14.741h69.712
						c11.521,0,22-5.374,28.745-14.741c6.621-9.197,8.376-20.583,4.812-31.245
						C1616.741,3149.296,1580.919,3149.296,1569.146,3149.296z"/>
				</g>
			</g>
			<g>
				<g>
					<path style="fill:#FF9433;" d="M1774.773,3279.063h-76.358c-42.23,0-72.472-41.325-59.084-81.377
						c14.006-41.904,41.866-84.307,97.263-84.307s83.257,42.403,97.263,84.307
						C1847.245,3237.738,1817.004,3279.063,1774.773,3279.063z"/>
				</g>
				<g>
					<path style="fill:#D6661A;" d="M1666.048,3146.939c0,0-15.47,76.261,70.546,78.801c86.016,2.539,76.753-70.569,76.753-70.569
						s79.726,122.623-76.753,123.893S1666.048,3146.939,1666.048,3146.939z"/>
				</g>
				<g>
					<path style="fill:#000072;" d="M1774.774,3302.604h-76.36c-27.534,0-53.586-13.352-69.692-35.715
						c-16.209-22.51-20.479-50.452-11.716-76.665c21.638-64.734,64.109-100.383,119.59-100.383s97.952,35.649,119.59,100.383
						c8.76,26.213,4.49,54.158-11.721,76.665C1828.36,3289.252,1802.306,3302.604,1774.774,3302.604z M1736.595,3136.921
						c-12.893,0-52.131,0-74.937,68.23c-3.904,11.677-1.982,24.153,5.271,34.224c7.39,10.264,18.865,16.15,31.484,16.15h76.36
						c12.62,0,24.094-5.886,31.484-16.147c7.256-10.073,9.177-22.549,5.274-34.229
						C1788.726,3136.921,1749.488,3136.921,1736.595,3136.921z"/>
				</g>
			</g>
		</g>
		<g>
			<g>
				<g>
					<polygon style="fill:#FF9433;" points="2275.15,3203.434 2395.763,3203.434 2444.008,2895.642 2261.92,2910.877 					"/>
				</g>
				<g>
					<path style="fill:#D6661A;" d="M2422.902,3030.295c0,0-24.996,72.293-80.66,68.484c-55.665-3.809-75.374-78.513-75.374-78.513
						l7.957,175.956l126.017-18.727L2422.902,3030.295z"/>
				</g>
				<g>
					<path style="fill:#000072;" d="M2395.762,3224.926H2275.15c-11.492,0-20.95-9.04-21.47-20.52l-13.23-292.556
						c-0.522-11.538,8.169-21.426,19.678-22.388l182.087-15.237c6.568-0.566,13.035,1.948,17.527,6.775
						c4.492,4.829,6.519,11.453,5.498,17.969l-48.245,307.793C2415.355,3217.219,2406.346,3224.926,2395.762,3224.926z
						 M2295.692,3181.942h81.685l41.162-262.602l-134.214,11.23L2295.692,3181.942z"/>
				</g>
			</g>
			<g>
				<g>
					<path style="fill:#FF9433;" d="M2395.998,3279.064h69.711c38.554,0,66.163-37.728,53.941-74.293
						c-12.787-38.256-38.221-76.968-88.796-76.968c-50.575,0-76.009,38.712-88.796,76.968
						C2329.835,3241.336,2357.444,3279.064,2395.998,3279.064z"/>
				</g>
				<g>
					<path style="fill:#D6661A;" d="M2495.258,3158.442c0,0,14.123,69.622-64.405,71.94c-78.528,2.318-70.072-64.426-70.072-64.426
						s-72.786,111.948,70.072,113.107C2573.71,3280.223,2495.258,3158.442,2495.258,3158.442z"/>
				</g>
				<g>
					<path style="fill:#000072;" d="M2465.709,3300.556h-69.712c-25.137,0-48.921-12.19-63.625-32.607
						c-14.797-20.549-18.696-46.06-10.698-69.99c19.756-59.099,58.531-91.646,109.18-91.646c50.649,0,89.424,32.546,109.18,91.646
						c7.998,23.933,4.099,49.443-10.698,69.99C2514.63,3288.366,2490.845,3300.556,2465.709,3300.556z M2430.853,3149.296
						c-11.77,0-47.593,0-68.413,62.29c-3.564,10.659-1.809,22.048,4.812,31.245c6.748,9.368,17.224,14.741,28.745,14.741h69.712
						c11.521,0,22-5.374,28.745-14.741c6.621-9.197,8.376-20.583,4.812-31.245
						C2478.446,3149.296,2442.623,3149.296,2430.853,3149.296z"/>
				</g>
			</g>
			<g>
				<g>
					<path style="fill:#FF9433;" d="M2225.227,3279.063h76.358c42.23,0,72.471-41.325,59.084-81.377
						c-14.006-41.904-41.866-84.307-97.263-84.307c-55.397,0-83.257,42.403-97.263,84.307
						C2152.756,3237.738,2182.997,3279.063,2225.227,3279.063z"/>
				</g>
				<g>
					<path style="fill:#D6661A;" d="M2333.952,3146.939c0,0,15.47,76.261-70.546,78.801c-86.016,2.539-76.753-70.569-76.753-70.569
						s-79.726,122.623,76.753,123.893C2419.885,3280.333,2333.952,3146.939,2333.952,3146.939z"/>
				</g>
				<g>
					<path style="fill:#000072;" d="M2301.585,3302.604h-76.357c-27.534,0-53.589-13.352-69.695-35.718
						c-16.208-22.507-20.479-50.452-11.716-76.663c21.638-64.734,64.109-100.383,119.59-100.383s97.952,35.649,119.59,100.383
						c8.762,26.213,4.49,54.158-11.719,76.665C2355.172,3289.252,2329.119,3302.604,2301.585,3302.604z M2263.406,3136.921
						c-12.893,0-52.131,0-74.936,68.23c-3.904,11.677-1.983,24.153,5.271,34.224c7.39,10.264,18.867,16.15,31.487,16.15h76.357
						c12.62,0,24.097-5.886,31.487-16.147c7.253-10.073,9.175-22.549,5.271-34.229
						C2315.538,3136.921,2276.3,3136.921,2263.406,3136.921z"/>
				</g>
			</g>
		</g>
		<g>
			<g>
				<path style="fill:#FFFFFF;" d="M2783.335,2627.975c0,0-38.679,392.095-783.33,392.095c-744.651,0-783.33-392.095-783.33-392.095
					c-98.561-145.263-128.932-456.131-128.072-657.12c0.143-23.494,0.716-45.557,1.576-65.612
					c8.738-191.678,113.03-206.291,113.03-206.291c58.305-198.267,141.967-345.106,233.366-453.839
					c295.683-351.839,831.035-351.839,1126.86,0c91.398,108.733,175.061,255.571,233.366,453.839c0,0,104.291,14.613,113.03,206.291
					C2918.427,2096.777,2893.5,2465.665,2783.335,2627.975z"/>
			</g>
			<g>
				<path style="fill:#D7D7E2;" d="M2910.548,1969.708c-5.587,197.695-39.11,459.282-127.212,589.073
					c0,0-38.679,392.095-783.33,392.095c-744.651,0-783.33-392.095-783.33-392.095c-88.104-129.648-121.626-391.379-127.213-589.073
					c51.143-67.188,84.951-110.452,84.951-110.452s152.426,291.671,277.918,271.329c125.637-20.342,53.292-205.288,31.517-262.447
					c0,0,117.328,151.28,105.724,368.601l-73.92,215.458c0,0,52.575,278.138,484.352,278.138
					c431.776,0,484.352-278.138,484.352-278.138l-73.921-215.458c-11.604-217.322,105.724-368.601,105.724-368.601
					c-21.774,57.16-94.12,242.105,31.517,262.447c125.493,20.342,277.919-271.329,277.919-271.329
					S2859.405,1902.521,2910.548,1969.708z"/>
			</g>
			<g>
				<path style="fill:#000072;" d="M1199.896,1675.649c40.463-2.328,81.122,8.916,117.451,25.486
					c70.025,32.534,123.987,88.52,164.868,152.453c20.095,31.275,36.773,64.356,51.188,98.174c0.319,0.747-0.029,1.612-0.778,1.93
					c-0.699,0.298-1.506,0.002-1.868-0.649c-30.623-55.83-67.917-107.877-115.06-150.612
					c-51.62-46.189-116.759-80.391-186.488-81.634c-7.574-0.052-15.464,0.156-22.64,1.458
					C1175.731,1725.763,1169.167,1681.02,1199.896,1675.649L1199.896,1675.649z"/>
			</g>
			<g>
				<path style="fill:#000072;" d="M1570.393,2045.622c43.843,115.949,45.417,256.862-30.161,360.543
					c-7.546,10.618-22.271,13.108-32.889,5.562c-11.538-8.072-13.283-24.905-3.695-35.196
					c18.575-20.583,34.606-43.973,46.272-69.927c24.525-53.18,32.111-112.429,29.312-170.906
					c-1.556-29.714-5.546-59.711-13.124-88.683c-0.316-1.206,0.406-2.439,1.613-2.754
					C1568.839,2043.968,1569.983,2044.57,1570.393,2045.622L1570.393,2045.622z"/>
			</g>
			<g>
				<path style="fill:#000072;" d="M2793.43,1722.255c-77.054-8.776-152.277,29.582-209.128,80.175
					c-47.144,42.737-84.435,94.779-115.06,150.612c-0.389,0.714-1.283,0.976-1.996,0.587c-0.668-0.364-0.935-1.182-0.648-1.868
					c21.557-50.771,48.921-100.395,83.776-143.637c47.515-59.653,112.123-108.47,187.87-126.356
					c20.095-4.631,41.057-7.625,61.862-6.119C2830.721,1681.005,2824.418,1725.697,2793.43,1722.255L2793.43,1722.255z"/>
			</g>
			<g>
				<path style="fill:#000072;" d="M2433.862,2047.133c-17.683,71.528-19.438,148.503,1.153,219.277
					c11.776,40.837,33.087,79.341,61.489,110.289c20.154,23.673-13.366,54.157-35.021,31.605
					c-58.589-77.806-72.204-180.489-55.779-274.259c5.203-30.283,12.759-59.931,23.904-88.422
					C2430.658,2043.164,2434.697,2044.196,2433.862,2047.133L2433.862,2047.133z"/>
			</g>
			<g>
				<path style="fill:#000072;" d="M2000.001,3043.61c-315.064,0-546.245-68.152-687.127-202.561
					c-94.077-89.756-114.702-180.024-118.718-204.478c-110.171-168.171-136.663-529.065-127.434-732.466
					c7.519-165.786,83.953-211.897,117.627-224.209c53.679-177.554,132.441-328.879,234.219-449.954
					c145.442-173.025,357.366-272.258,581.431-272.258c224.065,0,435.991,99.233,581.435,272.258
					c101.772,121.069,180.537,272.397,234.219,449.954c33.672,12.312,110.105,58.423,117.627,224.209l0,0
					c9.226,203.403-17.268,564.299-127.437,732.466c-4.016,24.453-24.641,114.722-118.718,204.478
					C2546.246,2975.458,2315.062,3043.61,2000.001,3043.61z M1999.998,1004.765c-210.129,0.003-408.916,93.118-545.391,255.471
					c-99.927,118.875-176.902,268.713-228.789,445.349c-2.605,8.872-10.164,15.398-19.321,16.68
					c-3.113,0.552-85.159,16.785-92.744,183.975c-8.684,191.401,16.877,553.005,122.434,708.501
					c2.207,3.252,3.565,7.002,3.95,10.913c0.088,0.815,11.043,93.04,108.076,184.016c90.92,85.244,277.8,186.86,651.787,186.86
					c373.984,0,560.867-101.616,651.785-186.86c97.034-90.977,107.988-183.201,108.088-184.124
					c0.413-3.833,1.772-7.615,3.938-10.806c105.554-155.493,131.118-517.097,122.437-708.501
					c-7.585-167.19-89.631-183.423-93.12-184.031c-9.158-1.284-16.341-7.752-18.946-16.621
					c-51.89-176.643-128.865-326.479-228.789-445.352C2408.917,1097.88,2210.128,1004.765,1999.998,1004.765z"/>
			</g>
		</g>
		<g>
			<g>
				<g>
					<path style="fill:#F97541;" d="M2000,1678.44h132.911c0,0-42.128,172.077-132.911,172.077
						c-90.783,0-132.911-172.077-132.911-172.077H2000z"/>
				</g>
				<g>
					<path style="fill:#000072;" d="M2000,1704.179h70.26c0,0-22.27,90.964-70.26,90.964c-47.99,0-70.26-90.964-70.26-90.964H2000z"
						/>
				</g>
				<g>
					<path style="fill:#FF6C7A;" d="M2000,1720.375h34.066c0,0-10.798,44.104-34.066,44.104s-34.066-44.104-34.066-44.104H2000z"/>
				</g>
				<g>
					<path style="fill:#000072;" d="M2000.001,1874.057c-106.191,0-151.016-170.569-155.779-190.017
						c-1.719-7.021-0.115-14.443,4.346-20.129c4.463-5.688,11.292-9.009,18.521-9.009h265.823c7.229,0,14.058,3.32,18.521,9.006
						c4.46,5.688,6.064,13.11,4.346,20.132C2151.014,1703.488,2106.192,1874.057,2000.001,1874.057z M1898.748,1701.982
						c17.209,49.705,53.467,124.995,101.252,124.995c47.781,0,84.036-75.283,101.25-124.995H1898.748z"/>
				</g>
			</g>
			<g>
				<g>
					<path style="fill:#FF9433;" d="M2000,1525.045c80.934,0,120.689,58.827,139.564,106.055
						c11.649,29.148-7.354,61.453-38.428,65.892h0c-67.084,9.583-135.189,9.583-202.273,0h0
						c-31.074-4.439-50.077-36.744-38.428-65.892C1879.311,1583.872,1919.066,1525.045,2000,1525.045z"/>
				</g>
				<g style="opacity:0.5;">
					<path style="fill:#FFFFFF;" d="M2000,1522.63c0,0-109.366,22.695-132.912,125.068c0,0,43.577-70.984,132.912-70.984
						c89.335,0,132.912,70.984,132.912,70.984C2109.366,1545.326,2000,1522.63,2000,1522.63z"/>
				</g>
				<g>
					<path style="fill:#000072;" d="M2000.001,1727.724c-34.907,0-69.802-2.476-104.468-7.429
						c-22.117-3.159-41.216-16.062-52.402-35.403c-11.104-19.197-12.764-41.987-4.556-62.527
						c31.148-77.937,88.477-120.859,161.426-120.859c72.949,0,130.276,42.922,161.423,120.859
						c8.208,20.537,6.548,43.328-4.553,62.524c-11.187,19.341-30.288,32.246-52.407,35.405
						C2069.81,1725.246,2034.901,1727.724,2000.001,1727.724z M2000.001,1548.586c-53.906,0-93.508,30.701-117.705,91.25
						c-2.815,7.041-2.234,14.871,1.592,21.484c3.906,6.755,10.579,11.265,18.303,12.368c64.902,9.272,130.718,9.272,195.615,0
						c7.727-1.104,14.402-5.613,18.308-12.368c3.823-6.614,4.404-14.443,1.59-21.482
						C2093.507,1579.286,2053.905,1548.586,2000.001,1548.586z"/>
				</g>
			</g>
		</g>
		<g>
			<path style="fill:#000072;" d="M1458.973,1546.45c90.175-36.708,204.373-12.062,266.063,65.043
				c20.601,25.063,35.696,53.487,44.718,82.943c3.839,12.535-3.209,25.808-15.745,29.648c-10.522,3.227-21.583-1.238-27.114-10.161
				c-14.695-22.529-30.277-43.095-47.906-60.573c-51.397-51.977-126.244-68.296-197.45-62.469c-1.976,0.094-7.101,0.601-8.842,0.606
				c0,0-6.41-0.4-6.41-0.4C1441.765,1589.5,1436.482,1555.585,1458.973,1546.45L1458.973,1546.45z"/>
		</g>
		<g>
			<path style="fill:#000072;" d="M2527.303,1591.487c-49.195-4.372-102.112-0.333-146.824,20.497
				c-46.214,21.059-79.527,58.733-107.375,101.939c-14.816,23.294-50.697,6.823-42.859-19.488
				c18.328-60.613,63.096-116.005,122.135-142.939c55.692-25.681,119.111-28.213,176.681-9.574
				c3.748,1.369,8.006,2.829,11.965,4.528c22.731,9.358,16.924,43.13-7.287,44.641
				C2533.74,1591.091,2527.303,1591.487,2527.303,1591.487L2527.303,1591.487z"/>
		</g>
		<g>
			<g>
				<g>
					<g>
						<path style="fill:#368219;" d="M1503.59,2496.407c0,0,19.856,58.092,60.332,138.72c7.028,13.999,5.542,31.182-4.574,43.142
							c-13.519,15.983-31.248,25.943-52.911,30.272c-17.359,3.469-34.773-5.942-42.572-21.833
							c-17.203-35.053-49.307-98.712-69.201-127.314C1366.449,2518.831,1503.59,2496.407,1503.59,2496.407z"/>
					</g>
					<g>
						<path style="fill:#000072;" d="M1499.176,2732.802c-23.43,0-45.584-13.596-56.445-35.72
							c-28.967-59.028-53.53-104.314-67.393-124.248c-8.694-12.498-10.422-26.609-4.866-39.731
							c15.92-37.607,95.74-54.436,129.319-59.927c11.318-1.846,22.351,4.746,26.072,15.61c0.195,0.569,19.92,57.739,59.097,135.781
							c11.46,22.825,8.462,49.871-7.639,68.906c-16.826,19.893-39.123,32.727-66.272,38.152
							C1507.088,2732.419,1503.114,2732.802,1499.176,2732.802z M1416.175,2549.15c20.938,31.338,51.856,92.615,68.821,127.188
							c3.233,6.584,10.31,10.403,16.826,9.121c16.692-3.335,29.629-10.659,39.551-22.39c3.843-4.541,4.448-11.526,1.511-17.376
							c-27.356-54.494-45.366-98.601-54.495-122.427C1456.009,2530.28,1425.965,2540.963,1416.175,2549.15z"/>
					</g>
				</g>
				<g>
					<g>
						<path style="fill:#FFCC3E;" d="M1583.27,2373.55c0,0,58.162,81.37-30.37,115.322c0,0-5.014,68.191-75.783,56.587
							c0,0-11.747,69.766-97.416,49.997c-76.642,55.871-117.614-43.264-117.614-43.264c-105.867,9.599-90.109-87.53-90.109-87.53
							c-111.74-6.59-62.317-106.583-62.317-106.583c-128.072-40.685-80.797-161.308-80.797-161.308
							c-109.878-64.609-39.969-146.408-39.969-146.408c-88.389-59.165-17.478-133.373-17.478-133.373
							c-31.372-31.087-30.943-56.73-20.199-75.926c0-0.143,0-0.143,0.143-0.143c9.455-17.191,27.362-29.225,37.963-35.098
							c0.143-0.143,0.143-0.143,0.287-0.143c0.143-0.143,0.143-0.143,0.287-0.143c4.87-2.722,8.022-4.154,8.022-4.154
							s-34.239-71.342,17.477-96.269c51.717-25.07,88.104,34.669,88.104,34.669s83.376-56.3,104.434,44.553
							c0,0,100.854-19.197,102.573,87.101c0,0,106.583-14.183,100.996,113.173c0,0,127.069,25.786,91.542,155.435
							c0,0,110.737,12.893,55.726,110.307c0,0,87.817,38.68,26.646,120.336C1584.845,2371.544,1583.986,2372.547,1583.27,2373.55z"
							/>
					</g>
					<g>
						<path style="fill:#F7A12F;" d="M1552.899,2488.872c0,0-5.014,68.191-75.783,56.587c0,0-11.747,69.766-97.416,49.997
							c-76.642,55.871-117.614-43.264-117.614-43.264c-105.867,9.599-90.109-87.53-90.109-87.53
							c-111.74-6.59-62.317-106.583-62.317-106.583c-128.072-40.685-80.797-161.308-80.797-161.308
							c-109.878-64.609-39.969-146.408-39.969-146.408c-88.389-59.165-17.478-133.373-17.478-133.373
							c-31.372-31.087-30.943-56.73-20.199-75.926c0-0.143,0-0.143,0.143-0.143c20.342-21.345,35.098-32.949,37.963-35.098
							c0.143-0.143,0.143-0.143,0.287-0.143c0.143-0.143,0.287-0.287,0.287-0.287s0,0,0,0.143
							c-1.433,4.728-23.494,87.101,51.143,74.494c0,0-10.172,68.477,23.064,98.704v-30.657c0,0,117.328-43.55,137.67,134.662
							c0,0,147.842-30.37,136.238,202.852c0,0-16.045,102.859-16.045,136.238c0,33.236,68.907,56.443,68.907,56.443
							s49.997,26.073,68.763,0c0,0,47.848-4.298,44.983-56.443c0,0,83.948,15.901,70.912-53.721c0,0,3.867,0.716,9.885,2.579
							c-0.573,0.859-1.433,1.862-2.149,2.865C1583.27,2373.55,1641.432,2454.92,1552.899,2488.872z"/>
					</g>
					<g style="opacity:0.5;">
						<path style="fill:#FFFFFF;" d="M1139.377,1801.496c-18.872-2.15-29.568-24.418-17.65-39.208
							c3.38-4.194,8.292-7.472,15.416-8.509c25.647-3.734,46.319,11.443,40.325,29.971
							C1173.515,1795.969,1156.511,1803.448,1139.377,1801.496z"/>
					</g>
					<g style="opacity:0.5;">
						<path style="fill:#FFFFFF;" d="M1239.375,2033.283c-18.872-2.15-29.568-24.418-17.65-39.208
							c3.38-4.194,8.292-7.472,15.416-8.509c25.647-3.734,46.319,11.443,40.325,29.971
							C1273.513,2027.756,1256.51,2035.235,1239.375,2033.283z"/>
					</g>
					<g style="opacity:0.5;">
						<path style="fill:#FFFFFF;" d="M1441.553,2315.062c6.115,17.983-9.453,37.164-27.916,32.704
							c-5.236-1.265-10.298-4.307-14.278-10.306c-14.329-21.596-9.433-46.77,9.88-49.262
							C1421.977,2286.554,1436.001,2298.735,1441.553,2315.062z"/>
					</g>
					<g style="opacity:0.5;">
						<path style="fill:#FFFFFF;" d="M1566.138,2306.165c6.115,17.983-9.453,37.164-27.916,32.704
							c-5.236-1.265-10.298-4.306-14.278-10.305c-14.328-21.596-9.433-46.77,9.879-49.262
							C1546.562,2277.657,1560.586,2289.838,1566.138,2306.165z"/>
					</g>
					<g style="opacity:0.5;">
						<path style="fill:#FFFFFF;" d="M1394.775,2071.546c-14.7-12.029-11.631-36.541,6.398-42.519
							c5.112-1.695,11.017-1.791,17.568,1.196c23.582,10.751,32.74,34.706,17.667,47.034
							C1426.466,2085.388,1408.122,2082.467,1394.775,2071.546z"/>
					</g>
					<g style="opacity:0.5;">
						<path style="fill:#FFFFFF;" d="M1359.369,2223.349c-13.291-13.569-7.55-37.596,11.026-41.56
							c5.268-1.124,11.147-0.57,17.33,3.117c22.259,13.275,28.733,38.09,12.397,48.689
							C1389.349,2240.587,1371.436,2235.669,1359.369,2223.349z"/>
					</g>
					<g style="opacity:0.5;">
						<path style="fill:#FFFFFF;" d="M1121.095,1881.493c-12.989-15.391-5.032-40.347,14.922-43.079
							c5.658-0.775,11.832,0.272,18.08,4.656c22.494,15.784,27.391,42.531,9.286,52.457
							C1151.442,1902.073,1132.888,1895.467,1121.095,1881.493z"/>
					</g>
					<g style="opacity:0.5;">
						<path style="fill:#FFFFFF;" d="M1304.351,1944.894c-12.989-15.391-5.032-40.347,14.922-43.079
							c5.658-0.775,11.832,0.272,18.08,4.656c22.494,15.784,27.391,42.531,9.286,52.457
							C1334.698,1965.474,1316.144,1958.868,1304.351,1944.894z"/>
					</g>
					<g style="opacity:0.5;">
						<path style="fill:#FFFFFF;" d="M1038.969,1777.199c-18.872-2.15-29.568-24.418-17.65-39.208
							c3.38-4.194,8.292-7.472,15.416-8.509c25.647-3.734,46.319,11.443,40.325,29.971
							C1073.106,1771.672,1056.103,1779.151,1038.969,1777.199z"/>
					</g>
					<g>
						<path style="fill:#000072;" d="M1183.823,1846.907c16.32-3.623,31.791,7.815,39.052,21.886
							c7.026,14.28,6.226,30.03,1.554,44.587c0,0-4.425-7.259-4.425-7.259c6.884,0.686,12.017,3.262,17.025,6.824
							c9.564,7.15,15.656,18.245,17.65,29.856c0.602,5.488,3.298,21.737-5.373,20.924c-1.791-0.239-3.228-1.41-3.889-2.959
							c-3.228-8.648-6.332-17.631-11.476-25.149c-4.679-6.734-10.999-12.433-17.184-17.559c-2.208,0.252-4.203-1.333-4.455-3.541
							c0.281-12.66,1.58-26.658-4.31-38.094c-5.387-10.549-15.423-15.008-24.986-22.295
							C1179.929,1852.536,1180.359,1847.645,1183.823,1846.907L1183.823,1846.907z"/>
					</g>
					<g>
						<path style="fill:#000072;" d="M1114.187,2060.59c-22.219,2.666-41.263-14.606-49.072-34.285
							c-5.683-14.8-5.087-30.874-1.199-45.888c1.55-4.627,3.236-9.19,5.026-13.649l4.929,10.244
							c-22.608-4.669-37.25-26.028-40.675-47.666c-1.379-9.232-0.989-18.944,1.364-27.952c0.835-3.546,4.387-5.743,7.932-4.908
							c2.352,0.554,4.11,2.303,4.784,4.452c1.947,6.398,3.099,12.865,5.24,19.022c4.858,16.463,15.337,29.909,27.25,41.599
							c3.235-0.022,5.806,2.873,5.417,6.081c-2.223,16.51-5.437,34.757,0.743,50.481c5.766,14.766,18.56,21.969,30.301,32.969
							C1120.088,2053.694,1118.939,2059.989,1114.187,2060.59L1114.187,2060.59z"/>
					</g>
					<g>
						<path style="fill:#000072;" d="M1314.821,2039.306c52.811,3.779,83.579,52.296,77.193,102.386
							c-1.098,6.429-2.387,12.777-4.002,18.977l-5.614-7.973c42.044-1.838,68.255,34.596,63.772,74.375
							c-1.078,11.585-3.827,22.556-8.103,32.809l-5.103-8.39c9.777-0.382,19.798,1.817,29.33,6.914
							c31.076,15.994,33.864,58.571,14.458,84.183c-4.156,5.886-13.811,2.653-13.598-4.507c0.243-37.657-0.853-51.419-34.001-72.778
							c-2.902-0.294-5.07-2.732-5.092-5.584c-0.088-11.168,0.23-22.475-0.717-32.818c-1.644-31.071-16.917-46.673-43.915-60.188
							c-2.827-0.221-5.023-2.436-5.314-5.159c-1.208-9.499-0.857-19.453-2.435-28.792c-3.08-36.423-25.34-65.574-59.141-79.312
							C1304.604,2050.833,1306.355,2039.117,1314.821,2039.306L1314.821,2039.306z"/>
					</g>
					<g>
						<path style="fill:#000072;" d="M1355.811,2503.566c-52.869,2.856-89.464-41.43-89.394-91.926
							c0.285-6.516,0.77-12.975,1.596-19.328l6.567,7.208c-41.484,7.083-72.044-25.786-72.575-65.814
							c-0.379-11.629,0.976-22.857,3.936-33.565l6.112,7.685c-14.841,2.589-32.097-1.475-44.375-11.62
							c-13.06-10.589-19.695-29.462-18.421-45.055c0.735-9.264,5.254-37.584,18.152-31.198c2.234,1.227,3.561,3.383,3.858,5.739
							c4.471,37.394,7.278,50.908,42.839,67.954c2.915-0.071,5.371,2.076,5.75,4.903c1.485,11.069,2.583,22.327,4.817,32.47
							c5.517,30.622,22.623,44.189,51.098,54.221c2.832-0.135,5.288,1.788,5.917,4.454c2.388,9.273,3.282,19.194,6.018,28.262
							c7.613,35.752,33.343,61.889,68.598,71.291C1364.505,2490.851,1364.233,2502.696,1355.811,2503.566L1355.811,2503.566z"/>
					</g>
					<g>
						<path style="fill:#000072;" d="M1334.205,2636.042c-8.059,0-15.164-1.221-21.123-2.896
							c-33.372-9.38-54.644-38.369-65.137-56.714c-32.388-0.005-57.729-9.629-75.493-28.706
							c-18.315-19.67-23.591-44.26-24.646-62.322c-29.214-5.684-50.02-18.95-62.012-39.592
							c-14.641-25.203-11.438-54.065-6.069-74.05c-32.93-14.836-56.443-36.731-70.051-65.295
							c-17.878-37.517-13.413-76.838-8.245-99.407c-32.456-22.749-51.487-49.805-56.648-80.61
							c-4.815-28.728,3.979-53.94,12.649-70.564c-21.196-18.909-33.259-40.762-35.93-65.186
							c-3.281-29.99,9.063-56.214,19.568-72.503c-16.67-21.672-22.993-43.801-18.809-65.981
							c5.623-29.795,29.014-50.19,46.572-61.636c-10.122-34.736-10.632-83.962,36.326-106.687
							c44.705-21.646,82.974,1.775,104.997,25.811c17.444-7.441,43.799-14.277,69.399-3.899
							c21.243,8.611,36.66,26.643,45.991,53.725c19.382,0.044,48.049,3.948,71.409,22.971c19.05,15.513,30.84,37.515,35.195,65.583
							c18.667,1.755,44.607,8.074,66.108,27.727c23.054,21.074,35.425,51.75,36.885,91.36c21.755,7.925,57.188,25.545,78.97,60.938
							c16.585,26.948,22.185,58.584,16.746,94.292c19.695,6.353,45.667,19.346,58.867,45.332
							c10.813,21.284,10.642,45.959-0.461,73.572c14.59,10.701,32.363,28.491,38.923,54.556
							c6.355,25.247,0.681,51.724-16.863,78.879c8.972,17.38,20.002,47.285,10.854,77.72c-6.841,22.761-23.1,40.535-48.411,52.971
							c-3.494,13.655-11.543,33.723-29.944,48.228c-10.134,7.988-26.472,16.433-50.381,16.687
							c-5.466,11.741-14.998,26.104-31.309,36.973c-20.867,13.904-46.87,18.313-77.415,13.123
							C1365.626,2632.243,1348.431,2636.042,1334.205,2636.042z M1262.103,2528.693c9.451,0,18.079,5.686,21.743,14.543
							c4.36,10.325,20.488,38.63,42.09,44.617c11.838,3.284,24.89-0.459,39.914-11.428c5.52-4.033,12.524-5.471,19.185-3.921
							c21.65,5.01,38.672,3.628,50.593-4.104c14.744-9.561,18.284-26.921,18.318-27.097c2.161-12.766,14.175-21.116,26.965-19.026
							c14.538,2.38,25.828,0.549,33.567-5.439c12.991-10.051,14.932-29.707,14.949-29.905c0.82-8.936,6.665-16.848,15.044-20.059
							c18.091-6.929,29.053-16.294,32.578-27.834c5.825-19.067-7.405-43.904-12.993-51.863c-5.957-8.484-5.725-19.958,0.664-28.123
							c15.476-19.775,21.467-37.173,17.81-51.704c-5.637-22.39-32.988-35.295-33.262-35.415c-6.096-2.678-10.774-7.81-12.876-14.126
							c-2.1-6.318-1.428-13.23,1.851-19.023c8.337-14.731,16.763-35.3,9.553-49.639c-8.655-17.207-37.986-24.492-47.58-25.688
							c-6.777-0.845-12.903-4.597-16.702-10.271c-3.799-5.676-4.995-12.727-3.191-19.316c8.865-32.39,6.802-59.575-6.133-80.801
							c-21.516-35.303-66.975-45.3-67.432-45.398c-11.25-2.385-19.233-12.576-18.735-24.065c1.462-33.872-5.691-58.367-21.265-72.8
							c-21.123-19.58-52.981-16.03-53.298-15.986c-6.611,0.798-13.342-1.245-18.367-5.632c-5.02-4.385-8.03-10.681-8.135-17.346
							c-0.391-24.597-6.968-42.322-19.551-52.683c-21.221-17.478-54.841-11.704-55.178-11.643
							c-12.534,2.244-24.71-5.864-27.319-18.325c-3.174-15.161-9.746-34.363-23.045-39.753c-15.884-6.441-39.626,6.089-45.115,9.797
							c-5.33,3.599-11.899,4.868-18.181,3.496c-6.282-1.365-11.733-5.244-15.085-10.73c-2.583-4.133-26.68-40.788-57.82-25.73
							c-29.863,14.453-7.402,62.861-6.433,64.917c2.727,5.767,3.015,12.434,0.762,18.406c-2.251,5.969-6.812,10.808-12.669,13.34
							c-8.916,3.935-35.374,19.46-38.816,38.098c-2.065,11.179,4.492,24.385,19.49,39.248c9.116,9.033,9.316,23.701,0.452,32.981
							c-0.146,0.161-23.259,25.244-20.122,52.559c1.86,16.191,13.167,31.345,33.604,45.042c5.583,3.743,9.302,9.692,10.217,16.353
							c0.913,6.66-1.062,13.391-5.43,18.501c-0.105,0.127-20.4,24.936-15.444,53.308c3.655,20.918,20.327,40.234,49.558,57.412
							c9.981,5.867,14.216,18.123,9.983,28.899c-0.129,0.344-16.44,43.938,1.504,81.184c10.789,22.39,32.488,38.897,64.497,49.055
							c6.54,2.075,11.851,6.902,14.539,13.218c2.688,6.313,2.485,13.489-0.552,19.641c-4.17,8.621-13.994,37.202-4.25,53.818
							c8.12,13.843,29.966,17.949,46.863,18.958c6.646,0.396,12.813,3.586,16.973,8.784c4.163,5.195,5.928,11.912,4.863,18.481
							c-0.024,0.166-4.309,30.229,11.799,47.322c10.232,10.854,28.035,15.225,52.939,12.993
							C1260.697,2528.725,1261.402,2528.693,1262.103,2528.693z"/>
					</g>
				</g>
			</g>
			<g>
				<g>
					<path style="fill:#FFFFFF;" d="M1277.129,2358.078c-34.811,194.113-39.109,351.123-39.109,351.123
						c-117.328-2.149-275.197-61.457-318.747-323.618c-25.07-151.566-5.158-266.888,34.095-337.084
						c28.365-51.286,67.33-78.648,106.44-78.648c92.687,0,91.255,160.734,91.255,160.734
						C1251.056,2103.081,1311.941,2163.965,1277.129,2358.078z"/>
				</g>
				<g>
					<path style="fill:#D7D7E2;" d="M1277.129,2358.078c-34.811,194.113-39.109,351.123-39.109,351.123
						c-98.561-45.699-30.37-280.211-34.811-348.831c-4.298-68.621,24.64-157.297-41.258-179.072
						c-62.317-20.486-110.738,84.665-116.182,96.699l32.376-84.666c0,0,12.034-138.1-30.943-165.462
						c-32.949-21.059-75.64,6.59-93.833,20.629c28.365-51.286,67.33-78.648,106.44-78.648c92.687,0,91.255,160.734,91.255,160.734
						C1251.056,2103.081,1311.941,2163.965,1277.129,2358.078z"/>
				</g>
				<g>
					<path style="fill:#000072;" d="M1161.086,2151.896c-18.263,8.714-34.497,22.721-48.464,37.372
						c-34.611,36.992-57.089,85.876-70.012,134.772c-5.021,16.518-8.349,35.073-12.268,51.966c-0.186,1.033-1.913,0.943-1.912-0.165
						c-0.92-17.302-1.484-36.81,0.054-54.229c4.979-71.401,32.152-144.66,86.579-193.492c8.188-7.213,16.158-13.516,26.012-18.842
						c0,0,24.442-12.538,24.442-12.538c15.988-8.201,35.597-1.889,43.799,14.099
						C1224.741,2141.657,1188.479,2171.825,1161.086,2151.896L1161.086,2151.896z"/>
				</g>
				<g>
					<path style="fill:#000072;" d="M1238.011,2732.8c-0.154,0-0.308,0-0.462-0.005c-106.614-2.039-292.744-49.365-341.479-343.391
						c-27.478-165.779-4.102-311.667,62.532-390.252c28.926-34.116,64.873-52.905,101.213-52.905c25.62,0,47.788,9.26,65.886,27.522
						c34.189,34.497,44.534,93.005,47.627,128.33c46.885-5.903,76.235,9.653,93.369,25.286
						c43.142,39.365,54.443,118.362,33.589,234.795c-34.024,189.961-38.711,346.177-38.752,347.734
						C1261.178,2722.675,1250.721,2732.8,1238.011,2732.8z M1059.815,1993.327c-22.603,0-45.183,12.544-65.303,36.274
						c-57.803,68.169-77.239,199.797-51.997,352.102c38.259,230.815,164.939,293.708,273.008,302.842
						c2.69-51.729,11.616-181.011,38.42-330.667c17.312-96.665,10.571-164.751-18.979-191.716
						c-16.902-15.417-43.018-18.408-77.634-8.879c-7.119,1.963-14.746,0.466-20.601-4.036c-5.854-4.5-9.255-11.487-9.189-18.872
						c0.168-24.272-5.85-93.831-35.322-123.508C1083.045,1997.629,1072.75,1993.327,1059.815,1993.327z"/>
				</g>
			</g>
			<g>
				<g>
					<g>
						<path style="fill:#368219;" d="M2496.41,2496.407c0,0-19.855,58.092-60.332,138.72c-7.028,13.999-5.542,31.182,4.574,43.142
							c13.519,15.983,31.248,25.943,52.911,30.272c17.359,3.469,34.773-5.942,42.572-21.833
							c17.202-35.053,49.307-98.712,69.201-127.314C2633.551,2518.831,2496.41,2496.407,2496.41,2496.407z"/>
					</g>
					<g>
						<path style="fill:#000072;" d="M2500.821,2732.802c-3.938,0-7.91-0.383-11.87-1.177
							c-27.151-5.425-49.446-18.259-66.272-38.152c-16.099-19.031-19.096-46.079-7.642-68.904
							c39.18-78.044,58.904-135.215,59.099-135.784c3.721-10.862,14.717-17.456,26.072-15.61
							c33.579,5.491,113.398,22.319,129.321,59.927c5.557,13.123,3.828,27.234-4.866,39.734
							c-13.865,19.931-38.428,65.215-67.395,124.243C2546.407,2719.206,2524.254,2732.802,2500.821,2732.802z M2511.61,2523.266
							c-9.128,23.826-27.139,67.93-54.495,122.424c-2.937,5.852-2.329,12.837,1.511,17.378c9.922,11.731,22.859,19.055,39.548,22.39
							c6.509,1.284,13.594-2.534,16.829-9.124c17.004-34.648,48.025-96.126,68.825-127.183
							C2574.041,2540.966,2543.995,2530.282,2511.61,2523.266z"/>
					</g>
				</g>
				<g>
					<g>
						<path style="fill:#FFCC3E;" d="M2416.73,2373.55c0,0-58.162,81.37,30.37,115.322c0,0,5.014,68.191,75.783,56.587
							c0,0,11.747,69.766,97.416,49.997c76.642,55.871,117.614-43.264,117.614-43.264c105.867,9.599,90.109-87.53,90.109-87.53
							c111.74-6.59,62.316-106.583,62.316-106.583c128.072-40.685,80.797-161.308,80.797-161.308
							c109.878-64.609,39.969-146.408,39.969-146.408c88.389-59.165,17.478-133.373,17.478-133.373
							c31.373-31.087,30.943-56.73,20.199-75.926c0-0.143,0-0.143-0.143-0.143c-9.455-17.191-27.362-29.225-37.963-35.098
							c-0.144-0.143-0.144-0.143-0.287-0.143c-0.143-0.143-0.143-0.143-0.287-0.143c-4.87-2.722-8.022-4.154-8.022-4.154
							s34.239-71.342-17.477-96.269c-51.717-25.07-88.104,34.669-88.104,34.669s-83.376-56.3-104.434,44.553
							c0,0-100.854-19.197-102.573,87.101c0,0-106.583-14.183-100.996,113.173c0,0-127.069,25.786-91.542,155.435
							c0,0-110.738,12.893-55.726,110.307c0,0-87.817,38.68-26.646,120.336C2415.155,2371.544,2416.014,2372.547,2416.73,2373.55z"
							/>
					</g>
					<g>
						<path style="fill:#F7A12F;" d="M2447.101,2488.872c0,0,5.014,68.191,75.783,56.587c0,0,11.747,69.766,97.416,49.997
							c76.642,55.871,117.614-43.264,117.614-43.264c105.867,9.599,90.109-87.53,90.109-87.53
							c111.74-6.59,62.316-106.583,62.316-106.583c128.072-40.685,80.797-161.308,80.797-161.308
							c109.878-64.609,39.969-146.408,39.969-146.408c88.389-59.165,17.478-133.373,17.478-133.373
							c31.373-31.087,30.943-56.73,20.199-75.926c0-0.143,0-0.143-0.143-0.143c-20.342-21.345-35.098-32.949-37.963-35.098
							c-0.144-0.143-0.144-0.143-0.287-0.143c-0.143-0.143-0.287-0.287-0.287-0.287s0,0,0,0.143
							c1.433,4.728,23.494,87.101-51.143,74.494c0,0,10.172,68.477-23.064,98.704v-30.657c0,0-117.328-43.55-137.67,134.662
							c0,0-147.842-30.37-136.238,202.852c0,0,16.045,102.859,16.045,136.238c0,33.236-68.907,56.443-68.907,56.443
							s-49.997,26.073-68.763,0c0,0-47.848-4.298-44.983-56.443c0,0-83.949,15.901-70.913-53.721c0,0-3.867,0.716-9.885,2.579
							c0.573,0.859,1.433,1.862,2.149,2.865C2416.73,2373.55,2358.568,2454.92,2447.101,2488.872z"/>
					</g>
					<g style="opacity:0.5;">
						<path style="fill:#FFFFFF;" d="M2860.623,1801.496c18.872-2.15,29.568-24.418,17.65-39.208
							c-3.38-4.194-8.292-7.472-15.416-8.509c-25.646-3.734-46.319,11.443-40.325,29.971
							C2826.486,1795.969,2843.489,1803.448,2860.623,1801.496z"/>
					</g>
					<g style="opacity:0.5;">
						<path style="fill:#FFFFFF;" d="M2760.625,2033.283c18.872-2.15,29.568-24.418,17.65-39.208
							c-3.38-4.194-8.292-7.472-15.416-8.509c-25.646-3.734-46.319,11.443-40.325,29.971
							C2726.487,2027.756,2743.49,2035.235,2760.625,2033.283z"/>
					</g>
					<g style="opacity:0.5;">
						<path style="fill:#FFFFFF;" d="M2558.447,2315.062c-6.115,17.983,9.452,37.164,27.916,32.704
							c5.236-1.265,10.298-4.307,14.278-10.306c14.329-21.596,9.434-46.77-9.879-49.262
							C2578.023,2286.554,2564,2298.735,2558.447,2315.062z"/>
					</g>
					<g style="opacity:0.5;">
						<path style="fill:#FFFFFF;" d="M2433.862,2306.165c-6.115,17.983,9.452,37.164,27.916,32.704
							c5.236-1.265,10.298-4.306,14.278-10.305c14.329-21.596,9.434-46.77-9.879-49.262
							C2453.438,2277.657,2439.414,2289.838,2433.862,2306.165z"/>
					</g>
					<g style="opacity:0.5;">
						<path style="fill:#FFFFFF;" d="M2605.225,2071.546c14.7-12.029,11.631-36.541-6.398-42.519
							c-5.113-1.695-11.017-1.791-17.568,1.196c-23.582,10.751-32.74,34.706-17.667,47.034
							C2573.534,2085.388,2591.878,2082.467,2605.225,2071.546z"/>
					</g>
					<g style="opacity:0.5;">
						<path style="fill:#FFFFFF;" d="M2640.631,2223.349c13.291-13.569,7.55-37.596-11.026-41.56
							c-5.268-1.124-11.147-0.57-17.33,3.117c-22.259,13.275-28.733,38.09-12.397,48.689
							C2610.651,2240.587,2628.564,2235.669,2640.631,2223.349z"/>
					</g>
					<g style="opacity:0.5;">
						<path style="fill:#FFFFFF;" d="M2878.905,1881.493c12.989-15.391,5.032-40.347-14.922-43.079
							c-5.658-0.775-11.832,0.272-18.08,4.656c-22.494,15.784-27.391,42.531-9.286,52.457
							C2848.558,1902.073,2867.112,1895.467,2878.905,1881.493z"/>
					</g>
					<g style="opacity:0.5;">
						<path style="fill:#FFFFFF;" d="M2695.648,1944.894c12.989-15.391,5.032-40.347-14.922-43.079
							c-5.658-0.775-11.832,0.272-18.08,4.656c-22.494,15.784-27.391,42.531-9.286,52.457
							C2665.302,1965.474,2683.856,1958.868,2695.648,1944.894z"/>
					</g>
					<g style="opacity:0.5;">
						<path style="fill:#FFFFFF;" d="M2961.031,1777.199c18.872-2.15,29.568-24.418,17.65-39.208
							c-3.379-4.194-8.292-7.472-15.416-8.509c-25.646-3.734-46.319,11.443-40.324,29.971
							C2926.894,1771.672,2943.897,1779.151,2961.031,1777.199z"/>
					</g>
					<g>
						<path style="fill:#000072;" d="M2816.993,1854.127c-25.71,16.11-31.477,26.197-29.324,56.67
							c-0.001-0.001,0.054,3.192,0.054,3.192c0.039,2.223-1.732,4.055-3.954,4.094c-14.908,9.488-23.805,25.91-29.183,42.675
							c-1.063,2.509-3.957,3.682-6.466,2.62c-1.664-0.704-2.74-2.222-2.968-3.891c-1.228-8.357-0.587-17.046,2.389-25.039
							c4.992-14.23,16.633-26.55,32.453-28.327c0,0-4.425,7.259-4.425,7.259c-4.672-14.557-5.472-30.308,1.554-44.587
							c5.536-10.682,15.466-19.618,27.28-21.982c4.111-0.648,15.515-2.297,14.604,4.695
							C2818.753,1852.693,2817.921,1853.491,2816.993,1854.127L2816.993,1854.127z"/>
					</g>
					<g>
						<path style="fill:#000072;" d="M2883.773,2051.09c11.734-10.992,24.537-18.205,30.302-32.97
							c6.18-15.73,2.965-33.962,0.743-50.476c-0.348-2.991,1.793-5.698,4.783-6.048c12.61-10.571,22.792-25.422,27.884-41.636
							c2.141-6.154,3.29-12.616,5.238-19.012c1.08-3.479,4.777-5.423,8.256-4.342c6.215,2.295,5.159,10.327,6.409,15.712
							c2.062,23.323-8.116,48.8-29.331,60.377c-3.719,1.922-7.04,3.366-11.927,4.315l4.929-10.244
							c15.923,33.178,8.617,79.264-29.553,92.425c-5.42,1.331-20.358,5.105-20.058-4.363
							C2881.632,2053.225,2882.631,2052.058,2883.773,2051.09L2883.773,2051.09z"/>
					</g>
					<g>
						<path style="fill:#000072;" d="M2687.46,2053.449c-47.889,20.717-59.941,56.282-61.275,105.289
							c-0.087,3.834-1.286,7.589-5.616,7.974c-43.166,20.808-45.31,46.002-44.618,90.199c-0.001-0.001-0.012,2.78-0.012,2.78
							c-0.012,2.917-2.256,5.313-5.093,5.611c-33.182,21.37-34.24,35.182-33.999,72.78c0.242,7.146-9.552,10.407-13.6,4.505
							c-19.401-25.414-16.545-68.375,14.46-84.182c9.531-5.097,19.552-7.296,29.329-6.914l-5.103,8.39
							c-4.276-10.253-7.025-21.224-8.104-32.81c-4.476-39.806,21.738-76.209,63.774-74.374c-0.001,0-5.615,7.973-5.615,7.973
							c-1.615-6.2-2.904-12.548-4.003-18.977c-6.412-50.056,24.437-98.65,77.194-102.386
							C2693.625,2039.155,2695.404,2050.842,2687.46,2053.449L2687.46,2053.449z"/>
					</g>
					<g>
						<path style="fill:#000072;" d="M2643.696,2489.249c50.104-14.564,66.512-48.343,73.964-96.797
							c0.567-3.793,2.226-7.368,6.57-7.208c45.431-15.245,50.708-39.972,55.551-83.91c0.001,0.001,0.36-2.756,0.36-2.756
							c0.377-2.893,2.903-4.99,5.754-4.93c35.596-17.052,38.372-30.622,42.837-67.955c0.496-4.239,4.45-7.271,8.677-6.568
							c2.36,0.383,4.301,1.861,5.38,3.799c4.65,8.468,7.308,17.96,7.955,28.229c2.835,35.131-28.21,62.715-62.794,56.673
							c-0.013,0.007,6.112-7.683,6.109-7.684c2.96,10.708,4.315,21.936,3.937,33.566c-0.54,40.053-31.1,72.891-72.576,65.813
							c0.001,0,6.568-7.208,6.568-7.208c0.826,6.354,1.311,12.813,1.597,19.328c0.101,50.466-36.585,94.818-89.395,91.926
							C2635.791,2502.66,2635.488,2490.841,2643.696,2489.249L2643.696,2489.249z"/>
					</g>
					<g>
						<path style="fill:#000072;" d="M2665.794,2636.042c-14.226,0-31.418-3.799-50.515-15.601
							c-30.544,5.183-56.548,0.781-77.412-13.12c-16.311-10.872-25.845-25.234-31.311-36.975
							c-23.911-0.254-40.244-8.699-50.378-16.687c-18.401-14.504-26.453-34.571-29.946-48.228
							c-25.31-12.437-41.567-30.21-48.408-52.971c-9.148-30.435,1.882-60.339,10.854-77.72
							c-17.544-27.156-23.218-53.633-16.865-78.882c6.56-26.062,24.336-43.853,38.923-54.553
							c-11.101-27.612-11.272-52.288-0.461-73.572c13.2-25.986,39.172-38.979,58.867-45.332
							c-5.439-35.708,0.161-67.344,16.746-94.292c21.782-35.393,57.214-53.013,78.97-60.938c1.46-39.609,13.831-70.286,36.885-91.36
							c21.499-19.651,47.444-25.972,66.111-27.727c4.355-28.069,16.145-50.071,35.195-65.583
							c23.357-19.021,52.027-22.927,71.409-22.971c9.331-27.083,24.749-45.115,45.991-53.725
							c25.596-10.379,51.953-3.542,69.397,3.899c22.024-24.036,60.286-47.441,105-25.811
							c46.956,22.725,46.445,71.951,36.323,106.687c17.559,11.445,40.95,31.841,46.572,61.636
							c4.185,22.18-2.139,44.309-18.809,65.981c10.505,16.289,22.849,42.512,19.57,72.505c-2.671,24.421-14.734,46.274-35.93,65.183
							c8.669,16.624,17.463,41.836,12.649,70.564c-5.164,30.805-24.192,57.861-56.65,80.61c5.168,22.571,9.634,61.89-8.245,99.407
							c-13.608,28.564-37.122,50.459-70.051,65.295c5.368,19.985,8.574,48.848-6.067,74.05
							c-11.992,20.642-32.801,33.909-62.014,39.592c-1.055,18.064-6.331,42.651-24.644,62.322
							c-17.761,19.074-43.11,28.701-75.493,28.706c-10.493,18.345-31.765,47.334-65.136,56.714
							C2680.96,2634.821,2673.854,2636.039,2665.794,2636.042z M2620.269,2571.899c4.944,0,9.812,1.558,13.879,4.526
							c15.029,10.969,28.084,14.714,39.917,11.428c21.604-5.986,37.729-34.292,42.121-44.692
							c3.982-9.429,13.66-15.264,23.823-14.373c25.007,2.256,42.871-2.177,53.081-13.147c15.735-16.897,11.704-46.87,11.655-47.166
							c-1.064-6.572,0.701-13.288,4.863-18.484c4.16-5.198,10.327-8.389,16.973-8.784c16.9-1.008,38.745-5.115,46.863-18.958
							c9.744-16.616-0.081-45.198-4.29-53.901c-2.976-6.147-3.154-13.33-0.454-19.602c2.7-6.274,7.971-11.108,14.48-13.174
							c32.009-10.159,53.708-26.665,64.497-49.055c17.944-37.246,1.633-80.84,1.467-81.277
							c-4.111-10.742,0.105-22.979,10.022-28.806c29.231-17.178,45.903-36.494,49.558-57.412
							c4.956-28.372-15.339-53.181-15.544-53.428c-4.263-5.125-6.203-11.882-5.251-18.479c0.952-6.597,4.602-12.544,10.139-16.255
							c20.535-13.76,31.848-28.994,33.628-45.278c2.983-27.256-19.917-52.078-20.149-52.322c-8.865-9.28-8.665-23.948,0.452-32.981
							c14.998-14.863,21.555-28.069,19.49-39.248c-3.442-18.638-29.9-34.163-38.896-38.132c-5.835-2.576-10.417-7.427-12.625-13.411
							s-1.934-12.627,0.833-18.374c0.935-1.982,23.396-50.391-6.467-64.844c-31.157-15.083-55.239,21.599-57.881,25.83
							c-3.386,5.417-8.863,9.277-15.113,10.603c-6.25,1.321-12.8,0.105-18.093-3.472c-6.787-4.49-29.871-16.069-45.21-9.756
							c-13.235,5.44-19.783,24.6-22.947,39.714c-2.629,12.561-14.849,20.703-27.441,18.301c-0.212-0.039-33.835-5.803-55.056,11.667
							c-12.583,10.361-19.16,28.086-19.551,52.683c-0.107,6.721-3.081,13.076-8.174,17.463c-5.095,4.387-11.824,6.392-18.481,5.496
							c-0.166-0.015-32.026-3.569-53.147,16.006c-15.574,14.434-22.727,38.928-21.265,72.8c0.5,11.568-7.488,21.782-18.833,24.085
							c-0.359,0.078-45.818,10.076-67.334,45.378c-12.935,21.226-14.998,48.411-6.133,80.801c1.812,6.621,0.645,13.701-3.196,19.39
							s-9.973,9.417-16.789,10.21c-9.5,1.184-38.833,8.469-47.486,25.676c-7.209,14.338,1.213,34.907,9.551,49.639
							c3.279,5.793,3.95,12.705,1.851,19.023c-2.102,6.316-6.78,11.448-12.874,14.126c-0.154,0.068-27.72,12.81-33.313,35.62
							c-3.552,14.487,2.456,31.814,17.859,51.499c6.436,8.228,6.682,19.712,0.603,28.206c-5.527,7.876-18.757,32.712-12.932,51.78
							c3.525,11.54,14.487,20.906,32.581,27.837c8.521,3.261,14.387,11.155,15.056,20.256c0.002-0.005,1.943,19.653,14.934,29.705
							c7.744,5.994,19.033,7.83,33.567,5.442c12.793-2.112,24.851,6.531,27.014,19.299c0-0.002,0-0.002,0-0.002
							c0.005,0,3.567,17.292,18.269,26.824c11.921,7.734,28.943,9.109,50.593,4.104
							C2616.719,2572.099,2618.499,2571.899,2620.269,2571.899z"/>
					</g>
				</g>
			</g>
			<g>
				<g>
					<path style="fill:#FFFFFF;" d="M2722.871,2358.078c34.812,194.113,39.109,351.123,39.109,351.123
						c117.328-2.149,275.198-61.457,318.747-323.618c25.07-151.566,5.158-266.888-34.095-337.084
						c-28.365-51.286-67.33-78.648-106.44-78.648c-92.687,0-91.255,160.734-91.255,160.734
						C2748.944,2103.081,2688.059,2163.965,2722.871,2358.078z"/>
				</g>
				<g>
					<path style="fill:#D7D7E2;" d="M2722.871,2358.078c34.812,194.113,39.109,351.123,39.109,351.123
						c98.561-45.699,30.371-280.211,34.812-348.831c4.298-68.621-24.64-157.297,41.258-179.072
						c62.317-20.486,110.738,84.665,116.182,96.699l-32.376-84.666c0,0-12.034-138.1,30.943-165.462
						c32.949-21.059,75.64,6.59,93.833,20.629c-28.365-51.286-67.33-78.648-106.44-78.648c-92.687,0-91.255,160.734-91.255,160.734
						C2748.944,2103.081,2688.059,2163.965,2722.871,2358.078z"/>
				</g>
				<g>
					<path style="fill:#000072;" d="M2858.925,2109.28c50.959,29.999,82.774,85.2,99.727,140.065
						c8.734,29.231,12.848,59.97,13.929,90.389c-0.747,47.656-0.504,50.442-10.477,1.354
						c-14.855-59.922-39.979-121.127-86.33-163.235c-10.288-9.497-22.153-18.519-34.552-24.895c-0.868-0.405-2.242-1.108-2.308-1.06
						c-14.474,10.648-34.839,7.548-45.487-6.926c-20.133-27.812,10.783-63.577,41.026-48.253
						C2834.452,2096.717,2858.925,2109.28,2858.925,2109.28L2858.925,2109.28z"/>
				</g>
				<g>
					<path style="fill:#000072;" d="M2761.99,2732.8c-12.712,0-23.166-10.125-23.523-22.886
						c-0.042-1.555-4.731-157.771-38.755-347.734c-20.854-116.433-9.553-195.43,33.589-234.795
						c17.131-15.635,46.511-31.191,93.369-25.286c3.093-35.327,13.44-93.833,47.629-128.33
						c18.098-18.262,40.266-27.522,65.886-27.522c36.34,0,72.285,18.789,101.213,52.905
						c66.631,78.584,90.007,224.473,62.529,390.252c-48.733,294.026-234.863,341.353-341.477,343.391
						C2762.298,2732.8,2762.144,2732.8,2761.99,2732.8z M2806.834,2147.836c-17.351,0-31.338,4.783-41.799,14.326
						c-29.551,26.965-36.292,95.051-18.979,191.716c26.804,149.656,35.73,278.94,38.423,330.667
						c108.069-9.133,234.748-72.026,273.005-302.842c25.242-152.307,5.806-283.936-51.995-352.105
						c-20.12-23.728-42.702-36.272-65.303-36.272c-12.935,0-23.23,4.302-32.405,13.54c-29.473,29.678-35.49,99.236-35.322,123.533
						c0.051,7.375-3.357,14.36-9.209,18.853c-5.852,4.494-13.474,5.996-20.581,4.031
						C2829.479,2149.653,2817.518,2147.836,2806.834,2147.836z"/>
				</g>
			</g>
		</g>
	</g>
</g>
</svg>
